<svg width="32" height="32" viewBox="125 370 275 250" xmlns="http://www.w3.org/2000/svg">
  <path
    fill="#005C42"
    d="M379.287781,537.000000 C379.277679,550.163635 379.364319,562.828308 379.238007,575.490784 C378.979919,601.359863 358.101196,622.056702 332.220337,622.060242 C284.565033,622.066895 236.909698,621.950256 189.254395,621.964539 C175.145935,621.968750 162.593033,618.133423 152.702484,607.639587 C144.263260,598.685547 139.616318,588.076538 139.618851,575.623108 C139.627228,534.466125 139.612411,493.309143 139.658508,452.152222 C139.688934,424.992706 159.465759,404.237000 186.558426,404.035980 C235.044266,403.676239 283.536499,403.687958 332.022522,404.036194 C359.286987,404.231964 379.226410,425.145874 379.268463,452.520233 C379.311462,480.513428 379.284485,508.506744 379.287781,537.000000 M174.897690,596.698730 C178.849304,598.585999 182.940735,599.719666 187.391968,599.715210 C235.380127,599.666748 283.368408,599.712280 331.356537,599.646790 C345.940460,599.626892 356.578522,589.026794 356.770660,574.458557 C356.913483,563.629456 357.009399,552.795288 356.823700,541.968506 C356.752777,537.834595 357.813446,534.982971 361.209229,532.212646 C369.724792,525.265564 370.311951,511.688660 362.017456,505.594086 C357.736084,502.448273 357.112793,498.948395 357.090790,494.585846 C357.022766,481.089478 357.001984,467.592834 356.948914,454.096375 C356.877594,435.954559 347.286346,426.250580 329.254242,426.241638 C282.432434,426.218445 235.610596,426.234497 188.788818,426.273987 C172.481537,426.287750 161.550858,436.543732 161.446014,452.921387 C161.190033,492.909790 161.245193,532.901672 161.464966,572.890564 C161.518921,582.706177 165.294113,591.083801 174.897690,596.698730 z"
  />
  <path
    fill="#005C42"
    d="M291.345520,545.788269 C307.450378,550.317139 323.761719,542.881104 326.206177,529.359680 C319.831635,529.359680 313.583130,529.542236 307.349579,529.314697 C299.055145,529.012085 294.003998,520.915100 297.144684,513.251831 C298.500366,509.943939 300.996338,507.208527 304.421967,507.063477 C313.826996,506.665192 323.259979,506.926056 332.491699,506.926056 C333.409760,509.291595 332.023254,510.593231 331.463257,512.090820 C327.774139,521.957458 333.245605,533.710754 343.418488,536.518921 C347.943329,537.767944 347.506439,539.755737 346.084717,542.970032 C336.664734,564.266968 312.090088,575.915039 288.580231,569.860718 C270.316254,565.157410 257.378265,554.016113 249.965408,536.589844 C249.325912,535.086487 248.679428,533.586121 247.550674,530.950745 C231.295975,552.392883 215.541504,573.175171 199.787018,593.957397 C199.274139,593.576538 198.761261,593.195679 198.248383,592.814819 C233.363251,537.601440 272.397003,485.159180 312.238373,433.248535 C308.366455,441.990662 302.069763,449.292419 297.546021,458.541412 C307.143219,458.408112 315.802460,460.336243 324.128479,463.754456 C329.383331,465.911804 332.583221,469.469635 332.407074,475.508545 C332.187073,483.050781 325.893372,488.151123 318.480530,486.640747 C317.346771,486.409729 316.171906,486.129089 315.157654,485.599976 C298.314819,476.814301 277.926605,486.793457 271.798065,502.850494 C265.117096,520.354919 272.926727,538.199646 291.345520,545.788269 z"
  />
  <path
    fill="#005C42"
    d="M199.316956,519.000122 C199.315796,531.496704 199.348297,543.493347 199.300354,555.489746 C199.269821,563.125854 194.098038,568.919373 187.467514,568.898315 C180.588577,568.876465 175.687683,563.400024 175.679214,555.535706 C175.656433,534.375122 175.633636,513.214233 175.729095,492.053986 C175.791412,478.242310 180.661804,466.736176 193.476135,460.273743 C206.003235,453.956177 218.284927,455.361908 229.706650,463.618225 C230.098099,463.901184 230.577072,464.063080 231.344528,464.445465 C236.535782,460.379730 242.276291,457.309753 249.141785,456.477936 C258.675659,455.322845 266.854309,458.209320 274.300140,463.867676 C276.794739,465.763428 277.578033,467.677612 275.280457,470.528992 C271.243195,475.539459 267.536041,480.815857 263.801361,485.832123 C262.930298,485.536926 262.497986,485.528351 262.330750,485.313477 C258.799652,480.776337 254.321198,478.511383 248.785400,480.911316 C243.194901,483.334930 241.902634,488.698700 242.544205,493.966522 C244.381363,509.050964 241.005569,522.204773 229.912430,533.020142 C228.741409,534.161743 228.014053,535.749268 227.025879,537.089355 C224.148468,540.991455 222.110336,540.736084 220.103775,536.160950 C219.016281,533.681335 218.805038,531.026794 218.810791,528.331970 C218.837128,516.002258 218.868149,503.672180 218.798676,491.342773 C218.758377,484.189423 215.494171,480.453979 209.419846,480.302582 C203.518295,480.155487 199.447540,484.565186 199.362289,491.507812 C199.251816,500.504059 199.323380,509.502533 199.316956,519.000122 z"
  />
  <path
    fill="#005C42"
    d="M361.255249,521.744263 C359.627594,527.819336 355.564301,530.633484 350.014832,531.301270 C344.769714,531.932312 341.093109,529.203003 338.580322,524.841980 C335.792938,520.004150 336.264313,515.288696 339.554962,510.836914 C343.875153,504.992188 350.108887,504.440338 356.762909,509.605164 C353.128265,511.512115 348.740692,513.917847 352.098846,518.354431 C354.993469,522.178711 357.816315,518.303955 360.216125,516.114807 C361.975647,517.731628 361.114838,519.643799 361.255249,521.744263 z"
  />
</svg>
